<svg width="26" height="25" viewBox="0 0 26 25" fill="none" xmlns="http://www.w3.org/2000/svg">
<g clip-path="url(#clip0_420_1758)">
<path d="M7.29451 1.34978C5.15512 1.35062 3.14536 1.87511 2.21787 2.80869C0.681476 4.35513 2.27992 6.86869 1.07906 10.6706C0.647342 12.0375 4.79714 15.2519 7.20358 17.7635C7.05764 17.3933 7.03741 16.99 7.14564 16.6087V16.5765L7.1692 16.5092C8.04907 14.0109 7.80517 12.6877 7.10654 10.6472C6.8462 9.887 6.89482 9.16285 7.19576 8.55088C7.4967 7.93891 8.02782 7.44791 8.68068 7.06268C9.9864 6.29222 11.7981 5.9113 13.6085 5.86251C13.834 5.85628 14.0596 5.85531 14.2852 5.85961C15.4596 5.88262 16.6064 6.05014 17.5886 6.38447C17.2983 6.10193 16.9699 5.81737 16.619 5.53215C14.5214 4.40228 8.82443 4.67178 6.19178 6.28647C7.84912 4.2176 11.9445 3.18995 15.4411 4.63015C15.0272 4.32781 14.6021 4.02847 14.1818 3.73544C12.121 2.57765 6.36195 2.83887 3.71066 4.46492C5.32439 2.4506 9.25084 1.42205 12.6843 2.69899C11.2431 1.7722 9.2169 1.34898 7.29451 1.34978ZM13.9499 6.73083C13.8449 6.73111 13.7403 6.73242 13.6352 6.73527C11.9525 6.78065 10.2678 7.16167 9.18192 7.80241C8.63898 8.12275 8.25097 8.49867 8.04631 8.91482C7.84156 9.33107 7.79855 9.79494 7.9992 10.3811C8.71045 12.4581 8.97922 14.1118 8.08225 16.7067V16.7168L8.05879 16.7826C7.99378 16.9669 7.99849 17.3392 8.14952 17.5999C8.30069 17.8604 8.53547 18.0617 9.13946 18.0617C9.50536 18.0617 9.99091 18.0608 10.4412 18.0603C11.5357 17.2872 12.8145 16.4145 13.7681 15.7227C14.2754 15.3549 14.9097 15.2727 15.4786 15.2871C16.0475 15.3016 16.5517 15.4103 16.9103 15.5708C17.8988 16.0125 18.7687 16.3022 19.6671 16.5122C19.6599 16.4668 19.6501 16.4277 19.6389 16.3966C18.8258 14.1524 18.4304 12.1687 19.2175 9.95427C19.4221 9.37897 19.3794 8.94177 19.1831 8.55818C18.9867 8.17468 18.6108 7.83169 18.0741 7.54807C17.1348 7.05188 15.7288 6.76685 14.2647 6.73382C14.1598 6.73155 14.0548 6.73061 13.9499 6.73102L13.9499 6.73083ZM15.3706 16.1599C15.3431 16.1599 15.3163 16.1606 15.2892 16.1614C14.9097 16.1729 14.5552 16.2589 14.3431 16.4128C13.1215 17.2988 11.406 18.4576 10.2189 19.3219C9.9848 19.4923 9.90891 19.6271 9.88986 19.6976C9.87082 19.7682 9.87753 19.7988 9.93061 19.8687C10.0367 20.0083 10.4213 20.1944 10.8031 20.1917C13.546 20.1728 15.6846 20.7856 17.4898 21.5965C18.4687 22.0362 19.6676 22.0513 20.8341 21.7866C22.0005 21.5218 23.1216 20.9768 23.8931 20.3744C24.6646 19.772 25.0124 19.1296 24.9489 18.7868C24.9171 18.6154 24.8195 18.4598 24.5103 18.2883C24.2011 18.1169 23.6801 17.9602 22.922 17.8834C20.4463 17.633 18.714 17.3454 16.5062 16.3587C16.3393 16.2841 15.8924 16.1725 15.4536 16.1614C15.4259 16.1606 15.3982 16.1601 15.3705 16.1599L15.3706 16.1599ZM25.2074 20.3934C25.0013 20.6198 24.7591 20.8375 24.4947 21.044C23.5977 21.7444 22.3727 22.3372 21.0565 22.6359C19.7405 22.9347 18.3208 22.9399 17.0842 22.3845C15.3718 21.6153 13.4026 21.048 10.811 21.0659C10.412 21.0687 10.0201 20.9868 9.69258 20.813C9.78831 21.5736 10.2782 22.2241 11.1634 22.2178C13.7308 22.1996 15.2396 22.788 17.0686 23.4122C19.9447 24.3937 25.2074 22.8699 25.2074 21.1142V20.3934V20.3934Z" fill="black"/>
</g>
<defs>
<clipPath id="clip0_420_1758">
<rect width="25.6634" height="23.9511" fill="white" transform="translate(0.178223 0.674316)"/>
</clipPath>
</defs>
</svg>
