<svg width="54" height="54" viewBox="0 0 54 54" fill="none" xmlns="http://www.w3.org/2000/svg">
<circle cx="26.861" cy="26.9353" r="26.861" fill="#F2F2F2"/>
<path d="M20.7275 33.113C21.9586 33.113 22.9659 34.1203 22.9659 35.3514C22.9659 36.5826 21.9586 37.5898 20.7275 37.5898C19.4963 37.5898 18.489 36.5826 18.489 35.3514C18.489 34.1203 19.4963 33.113 20.7275 33.113ZM31.9196 33.113C33.1507 33.113 34.158 34.1203 34.158 35.3514C34.158 36.5826 33.1507 37.5898 31.9196 37.5898C30.6884 37.5898 29.6811 36.5826 29.6811 35.3514C29.6811 34.1203 30.6884 33.113 31.9196 33.113ZM20.9513 29.5315C20.9513 29.6434 21.0632 29.7554 21.1752 29.7554H34.158V31.9938H20.7275C19.4963 31.9938 18.489 30.9865 18.489 29.7554C18.489 29.3077 18.601 28.9719 18.7129 28.6362L20.1679 25.9501L16.2506 17.4441H14.0122V15.2056H17.7056L22.5182 25.2785H30.3527L34.7176 17.4441L36.6203 18.5633L32.2553 26.3977C31.9196 27.0693 31.1361 27.5169 30.3527 27.5169H21.9586L20.9513 29.3077V29.5315ZM23.4136 14.0864C24.3089 14.0864 24.9805 14.758 24.9805 15.6533C24.9805 16.5487 24.3089 17.2202 23.4136 17.2202C22.5182 17.2202 21.8467 16.5487 21.8467 15.6533C21.8467 14.758 22.6301 14.0864 23.4136 14.0864ZM29.2335 23.0401C28.3381 23.0401 27.6666 22.3686 27.6666 21.4732C27.6666 20.5778 28.3381 19.9063 29.2335 19.9063C30.1288 19.9063 30.8004 20.5778 30.8004 21.4732C30.8004 22.3686 30.0169 23.0401 29.2335 23.0401ZM23.1897 23.0401L21.8467 21.6971L29.4573 14.0864L30.8004 15.4295L23.1897 23.0401Z" fill="#6D31ED"/>
</svg>
