<svg width="50" height="50" viewBox="0 0 50 50" fill="none" xmlns="http://www.w3.org/2000/svg">
<circle cx="25" cy="25" r="25" fill="#F2F2F2"/>
<path d="M19.2915 30.7501C20.4373 30.7501 21.3748 31.6876 21.3748 32.8334C21.3748 33.9792 20.4373 34.9167 19.2915 34.9167C18.1457 34.9167 17.2082 33.9792 17.2082 32.8334C17.2082 31.6876 18.1457 30.7501 19.2915 30.7501ZM29.7082 30.7501C30.854 30.7501 31.7915 31.6876 31.7915 32.8334C31.7915 33.9792 30.854 34.9167 29.7082 34.9167C28.5623 34.9167 27.6248 33.9792 27.6248 32.8334C27.6248 31.6876 28.5623 30.7501 29.7082 30.7501ZM19.4998 27.4167C19.4998 27.5209 19.604 27.6251 19.7082 27.6251H31.7915V29.7084H19.2915C18.1457 29.7084 17.2082 28.7709 17.2082 27.6251C17.2082 27.2084 17.3123 26.8959 17.4165 26.5834L18.7707 24.0834L15.1248 16.1667H13.0415V14.0834H16.479L20.9582 23.4584H28.2498L32.3123 16.1667L34.0832 17.2084L30.0207 24.5001C29.7082 25.1251 28.979 25.5417 28.2498 25.5417H20.4373L19.4998 27.2084V27.4167ZM21.7915 13.0417C22.6248 13.0417 23.2498 13.6667 23.2498 14.5001C23.2498 15.3334 22.6248 15.9584 21.7915 15.9584C20.9582 15.9584 20.3332 15.3334 20.3332 14.5001C20.3332 13.6667 21.0623 13.0417 21.7915 13.0417ZM27.2082 21.3751C26.3748 21.3751 25.7498 20.7501 25.7498 19.9167C25.7498 19.0834 26.3748 18.4584 27.2082 18.4584C28.0415 18.4584 28.6665 19.0834 28.6665 19.9167C28.6665 20.7501 27.9373 21.3751 27.2082 21.3751ZM21.5832 21.3751L20.3332 20.1251L27.4165 13.0417L28.6665 14.2917L21.5832 21.3751Z" fill="#6D31ED"/>
</svg>
