<svg width="51" height="50" viewBox="0 0 51 50" fill="none" xmlns="http://www.w3.org/2000/svg">
<circle cx="25.2261" cy="25" r="25" fill="#F2F2F2"/>
<path d="M36.5386 31.2292C36.5386 31.9198 36.2642 32.5822 35.7758 33.0706C35.2875 33.559 34.6251 33.8333 33.9344 33.8333C33.2437 33.8333 32.5814 33.559 32.093 33.0706C31.6046 32.5822 31.3302 31.9198 31.3302 31.2292C31.3302 30.5385 31.6046 29.8761 32.093 29.3877C32.5814 28.8994 33.2437 28.625 33.9344 28.625C34.6251 28.625 35.2875 28.8994 35.7758 29.3877C36.2642 29.8761 36.5386 30.5385 36.5386 31.2292ZM26.1219 31.2292C26.1219 31.9198 25.8475 32.5822 25.3592 33.0706C24.8708 33.559 24.2084 33.8333 23.5177 33.8333C22.8271 33.8333 22.1647 33.559 21.6763 33.0706C21.1879 32.5822 20.9136 31.9198 20.9136 31.2292C20.9136 30.5385 21.1879 29.8761 21.6763 29.3877C22.1647 28.8994 22.8271 28.625 23.5177 28.625C24.2084 28.625 24.8708 28.8994 25.3592 29.3877C25.8475 29.8761 26.1219 30.5385 26.1219 31.2292Z" stroke="#6D31ED" stroke-width="1.5" stroke-linecap="round" stroke-linejoin="round"/>
<path d="M31.3304 31.2292H26.1221M18.3096 17.1667H28.7262C30.1992 17.1667 30.9356 17.1667 31.3929 17.6251C31.8512 18.0813 31.8512 18.8178 31.8512 20.2917V29.1459M32.3721 19.7709H34.2481C35.1127 19.7709 35.545 19.7709 35.9033 19.974C36.2617 20.1761 36.4835 20.547 36.9283 21.2886L38.6981 24.2365C38.9189 24.6053 39.0294 24.7907 39.0867 24.9949C39.1429 25.2001 39.1429 25.4147 39.1429 25.8449V28.6251C39.1429 29.599 39.1429 30.0855 38.9335 30.448C38.7964 30.6855 38.5992 30.8827 38.3617 31.0199C37.9992 31.2292 37.5127 31.2292 36.5387 31.2292M18.3096 26.5417V28.6251C18.3096 29.599 18.3096 30.0855 18.5189 30.448C18.6561 30.6855 18.8533 30.8827 19.0908 31.0199C19.4533 31.2292 19.9398 31.2292 20.9137 31.2292M18.3096 20.2917H24.5596M18.3096 23.4167H22.4762" stroke="#6D31ED" stroke-width="1.5" stroke-linecap="round" stroke-linejoin="round"/>
</svg>
