<svg width="26" height="25" viewBox="0 0 26 25" fill="none" xmlns="http://www.w3.org/2000/svg">
<g clip-path="url(#clip0_420_1754)">
<path d="M22.2406 5.36116C22.0376 5.35601 21.8374 5.41341 21.6564 5.54827C21.5791 5.60581 21.501 5.68319 21.4323 5.77048C20.2845 7.23093 19.0124 8.45235 17.6637 9.55962C17.2246 10.2469 18.1998 11.6369 18.9466 11.6369C20.658 11.0321 22.436 10.5836 24.2973 10.406C26.434 10.2021 25.1839 7.21868 22.9815 8.27889C24.5003 7.21858 23.3371 5.38838 22.2406 5.36106V5.36116ZM15.7403 5.8333C15.4311 5.82825 15.128 5.88813 14.8583 6.03352C14.7803 6.07571 14.7065 6.12415 14.6375 6.1783C14.6356 6.17568 14.633 6.17222 14.6312 6.1696C10.6257 9.27585 8.80006 9.6064 6.70058 10.2321C6.35543 10.335 6.08556 10.568 5.87354 10.9572C5.66151 11.3464 5.52808 11.8854 5.50548 12.5068C5.46037 13.7494 5.85309 15.3101 6.69441 16.6716C7.53248 18.0277 8.86828 19.1951 10.0856 19.8117C10.6942 20.12 11.2726 20.2873 11.7083 20.2999C12.1441 20.3125 12.4058 20.2087 12.5996 19.9549C14.1528 17.9223 17.0779 16.7247 20.4268 15.6395C20.4266 15.6392 20.427 15.6384 20.4268 15.6381C20.5287 15.6071 20.6268 15.5665 20.7196 15.5167C21.1307 15.2951 21.3981 14.9134 21.5358 14.4817C21.6735 14.05 21.6972 13.5578 21.6375 13.0199C21.5897 12.5879 21.4855 12.1251 21.329 11.6458C21.0325 11.7097 20.7462 11.7934 20.4314 11.9016C20.5735 12.3343 20.6665 12.7426 20.7071 13.109C20.7575 13.5646 20.7273 13.9539 20.6381 14.2333C20.5491 14.5126 20.417 14.6701 20.2513 14.7595C20.0855 14.8489 19.8732 14.8767 19.5699 14.8091C19.2665 14.7416 18.8907 14.572 18.4937 14.3034C17.6998 13.7663 16.8229 12.8428 16.1066 11.6838C15.3903 10.5246 14.9733 9.35239 14.8724 8.44131C14.8219 7.98577 14.8522 7.59801 14.9413 7.3186C15.0305 7.03918 15.1625 6.88027 15.3282 6.79093C15.4111 6.74616 15.5047 6.71701 15.6164 6.70756C15.6444 6.70523 15.6739 6.70443 15.7042 6.70462C15.7949 6.70527 15.8958 6.71734 16.0096 6.7427C16.3129 6.81025 16.6872 6.97847 17.0841 7.24698C17.496 7.52565 17.9304 7.90966 18.353 8.37558C18.6071 8.18589 18.8211 7.98965 19.0249 7.75865C18.5753 7.26934 18.1043 6.85768 17.634 6.53949C17.1651 6.22232 16.695 5.99638 16.2258 5.89187C16.11 5.86586 15.9922 5.84826 15.8734 5.83924C15.8291 5.83606 15.7847 5.83412 15.7403 5.83344V5.8333ZM16.1396 7.4326C16.1176 7.43372 16.0965 7.43555 16.0754 7.43845C15.2069 7.55727 15.3251 9.12415 16.3276 10.9263C17.33 12.7287 18.8598 14.0875 19.7281 13.9685C20.0286 13.9273 20.1924 13.7025 20.2624 13.3662C20.1787 13.4685 20.0695 13.5292 19.9255 13.549C19.1578 13.6541 17.8045 12.4687 16.9181 10.8752C16.0318 9.28175 15.953 7.88557 16.7208 7.78045C16.9031 7.75566 17.1062 7.79996 17.3396 7.91059C16.9045 7.59249 16.4698 7.41553 16.1397 7.4326H16.1396ZM5.29095 15.983C4.46115 16.0692 3.52138 16.1355 2.43074 16.1877C-0.0317438 16.3057 1.14982 19.536 3.93916 18.6305C1.4648 20.0292 4.13264 22.6969 5.291 20.8174C5.81038 19.9747 6.38771 19.2368 7.014 18.5807C6.59196 18.1296 6.20811 17.6347 5.88306 17.1086C5.65909 16.7461 5.4613 16.3701 5.291 15.9831L5.29095 15.983Z" fill="black"/>
</g>
<defs>
<clipPath id="clip0_420_1754">
<rect width="25.6634" height="23.9511" fill="white" transform="translate(0.178223 0.773926)"/>
</clipPath>
</defs>
</svg>
