<svg width="26" height="25" viewBox="0 0 26 25" fill="none" xmlns="http://www.w3.org/2000/svg">
<path d="M11.7803 2.37073L9.99461 4.86564L11.2136 5.61411L7.81322 10.3544H7.66352C7.09632 10.3544 6.55236 10.5647 6.15129 10.939C5.75022 11.3133 5.5249 11.821 5.5249 12.3504C5.52622 12.806 5.69453 13.2475 6.00188 13.6015C6.30922 13.9555 6.73709 14.2007 7.21441 14.2964L11.5344 20.3341H7.66352V22.33H18.3566V20.3341H14.0794L9.29956 13.6278C9.62224 13.27 9.80011 12.818 9.80213 12.3504C9.80213 12.051 9.72728 11.7516 9.58827 11.4821L13.0101 6.73183C12.7748 8.40841 13.812 10.2447 15.6299 11.3524L20.3776 4.7359C18.5704 3.6082 16.3463 3.40861 14.7744 4.23692L11.7803 2.37073ZM19.7788 7.36054L18.0037 9.85545C18.7308 10.3045 19.736 10.1249 20.2279 9.43631C20.7198 8.74771 20.4952 7.81961 19.7788 7.36054Z" fill="black"/>
</svg>
