<svg width="26" height="25" viewBox="0 0 26 25" fill="none" xmlns="http://www.w3.org/2000/svg">
<rect width="25.6634" height="23.9511" transform="translate(0.178223 0.474487)" fill="#F3F4F6"/>
<path d="M6.85981 2.03735L4.08246 2.68478L1.9126 7.41185L3.58122 8.45036L4.95762 5.88216L5.81223 6.11138L5.05686 13.133H12.4687L12.9298 9.02107L12.9749 8.64216H13.2005L12.9298 6.11138L13.7869 5.88216L15.1603 8.45036L16.8294 7.41185L14.6591 2.68478L11.8822 2.03735C11.6065 2.21839 11.2707 2.32785 10.9048 2.40925C10.4336 2.51263 9.90232 2.56082 9.37101 2.56082C8.8397 2.56082 8.30839 2.51263 7.83723 2.40925C7.47132 2.32785 7.13549 2.21886 6.85981 2.03735ZM13.7869 9.48419L13.7117 10.1391H22.6739L22.5987 9.48419H13.7869ZM13.6165 10.9811L12.2782 22.8631H15.421L17.7517 12.7167H18.6339L20.9646 22.8631H24.1074L22.7691 10.9811H13.6165Z" fill="black"/>
</svg>
