<svg width="26" height="25" viewBox="0 0 26 25" fill="none" xmlns="http://www.w3.org/2000/svg">
<g clip-path="url(#clip0_416_1647)">
<path d="M2.31689 20.5336V17.5397H4.45551V6.56209C4.45551 6.01321 4.66509 5.5435 5.08426 5.15296C5.50343 4.76243 6.00672 4.56683 6.59412 4.56616H22.6337V6.56209H6.59412V17.5397H13.01V20.5336H2.31689ZM16.2179 20.5336C15.9149 20.5336 15.6611 20.4378 15.4565 20.2462C15.2519 20.0546 15.1493 19.8177 15.1486 19.5356V9.55598C15.1486 9.27322 15.2512 9.03637 15.4565 8.84543C15.6618 8.65449 15.9156 8.55868 16.2179 8.55802H22.6337C22.9367 8.55802 23.1908 8.65382 23.3961 8.84543C23.6014 9.03704 23.7037 9.27389 23.703 9.55598V19.5356C23.703 19.8184 23.6004 20.0556 23.3951 20.2472C23.1898 20.4388 22.936 20.5342 22.6337 20.5336H16.2179Z" fill="black"/>
</g>
<defs>
<clipPath id="clip0_416_1647">
<rect width="25.6634" height="23.9511" fill="white" transform="translate(0.178223 0.574341)"/>
</clipPath>
</defs>
</svg>
