<svg width="26" height="25" viewBox="0 0 26 25" fill="none" xmlns="http://www.w3.org/2000/svg">
<path fill-rule="evenodd" clip-rule="evenodd" d="M5.31862 9.17184C6.15054 8.36948 6.98246 8.10203 8.09133 8.63693C9.09007 9.11845 9.63915 9.16635 10.1433 9.17134C10.6689 9.16635 11.2404 9.11845 12.2809 8.63693C13.4357 8.10203 14.3019 8.36948 15.1685 9.17184C16.1897 10.1179 16.5052 11.1029 16.6126 11.8469C16.6251 11.9068 16.6363 11.9666 16.6463 12.0265C16.3016 12.1204 15.9931 12.3049 15.7576 12.5579C15.5221 12.8109 15.3696 13.1218 15.3182 13.4534C15.2668 13.7851 15.3187 14.1236 15.4677 14.4285C15.6168 14.7334 15.8566 14.9919 16.1587 15.1731L16.1165 15.2744C15.9047 15.1345 15.6641 15.0372 15.41 14.9887C15.1558 14.9403 14.8936 14.9416 14.64 14.9928C14.3864 15.0439 14.147 15.1437 13.937 15.2858C13.7269 15.4279 13.5508 15.6093 13.4199 15.8183C13.2889 16.0273 13.206 16.2594 13.1763 16.5C13.1466 16.7405 13.1708 16.9842 13.2474 17.2155C13.324 17.4468 13.4513 17.6608 13.6213 17.8437C13.7912 18.0267 14 18.1746 14.2345 18.2783C14.1839 18.3368 14.1345 18.3919 14.0864 18.4434C13.64 18.877 13.132 19.155 12.5814 19.0701C10.8491 18.8022 10.5604 18.8022 10.2716 18.8022H10.0204C9.74341 18.8022 9.46593 18.8022 7.80262 19.0701C6.47133 19.2837 5.40203 17.1975 4.87165 16.1281C4.03759 14.4501 3.87131 12.7351 3.93226 11.8469C4.03545 11.1024 4.3386 10.1179 5.31862 9.17234" fill="black"/>
<path fill-rule="evenodd" clip-rule="evenodd" d="M20.4125 9.90044C21.013 10.1015 21.5034 10.5171 21.7757 11.0556C22.048 11.5941 22.08 12.2116 21.8646 12.7721C21.8471 12.8163 21.8245 12.8567 21.7967 12.8933C22.2331 13.2435 22.5206 13.7281 22.6069 14.2592C22.6932 14.7903 22.5727 15.3327 22.2672 15.7879C22.1172 16.0113 21.9263 16.2082 21.7031 16.3697C21.7106 16.4429 21.7143 16.5169 21.7143 16.5918C21.7146 16.9646 21.6153 17.3315 21.4256 17.6596C21.7236 17.8099 21.9842 18.0173 22.1904 18.2681C22.3965 18.5189 22.5437 18.8075 22.6221 19.115C22.7005 19.4225 22.7085 19.742 22.6455 20.0526C22.5824 20.3632 22.4499 20.6579 22.2564 20.9174C22.063 21.1769 21.813 21.3953 21.5228 21.5584C21.2327 21.7215 20.9089 21.8256 20.5727 21.8638C20.2364 21.9021 19.8954 21.8736 19.5717 21.7804C19.2481 21.6871 18.9492 21.5311 18.6946 21.3226C18.288 21.6338 17.7834 21.812 17.258 21.8302C16.7325 21.8483 16.2152 21.7053 15.7851 21.423C15.355 21.1407 15.0358 20.7347 14.8764 20.2671C14.717 19.7995 14.7261 19.296 14.9023 18.8337C14.2875 18.8028 13.7087 18.5531 13.2852 18.136C12.8617 17.7189 12.6256 17.1662 12.6256 16.5915C12.6256 16.0169 12.8617 15.4641 13.2852 15.047C13.7087 14.6299 14.2875 14.3802 14.9023 14.3494C14.7694 14.0002 14.7311 13.6258 14.7909 13.2595C14.8507 12.8932 15.0067 12.5464 15.2449 12.25C15.4832 11.9536 15.7963 11.7169 16.1565 11.5609C16.5166 11.4049 16.9124 11.3345 17.3088 11.356C17.3138 11.3224 17.3227 11.2888 17.3355 11.2552C17.5511 10.6948 17.9964 10.2372 18.5734 9.98316C19.1504 9.72911 19.8119 9.69935 20.4125 9.90044ZM19.3522 20.5322C19.4957 20.6615 19.6684 20.7591 19.8576 20.8179C20.0467 20.8768 20.2476 20.8954 20.4455 20.8724C20.6433 20.8494 20.8332 20.7854 21.0011 20.685C21.169 20.5847 21.3108 20.4505 21.4159 20.2924C21.5211 20.1343 21.587 19.9563 21.6089 19.7713C21.6308 19.5863 21.608 19.3991 21.5423 19.2234C21.4766 19.0477 21.3696 18.888 21.2291 18.7559C21.0887 18.6238 20.9183 18.5227 20.7306 18.46C20.7124 18.4539 20.6945 18.4469 20.6771 18.439C20.3216 18.6685 19.8965 18.8113 19.4378 18.8342C19.5271 19.0687 19.5757 19.3222 19.5757 19.5857C19.5757 19.924 19.4955 20.2443 19.3522 20.5322ZM19.4378 14.3499C19.8094 14.3684 20.1713 14.4672 20.495 14.6383C20.8188 14.8095 21.0956 15.0484 21.3037 15.3363C21.4307 15.1757 21.5144 14.989 21.5481 14.792C21.5875 14.5605 21.5563 14.3234 21.458 14.1077C21.3597 13.8921 21.1983 13.7066 20.9922 13.5726C20.7862 13.4386 20.5439 13.3615 20.2931 13.3501C20.0423 13.3387 19.7931 13.3934 19.5741 13.5081C19.5865 13.794 19.5403 14.0801 19.4378 14.3499ZM19.2865 12.5291C19.7841 12.3318 20.3383 12.2966 20.86 12.4293C20.9777 12.1179 20.9584 11.7756 20.8062 11.4775C20.654 11.1794 20.3814 10.9498 20.0481 10.839C19.7148 10.7282 19.348 10.7452 19.0282 10.8863C18.7083 11.0275 18.4615 11.2813 18.3417 11.592L18.3262 11.6279C18.7326 11.8357 19.0661 12.1486 19.2865 12.5291ZM17.1698 12.3504C16.8153 12.3504 16.4753 12.4819 16.2246 12.7158C15.974 12.9498 15.8331 13.267 15.8331 13.5979C15.8331 13.9287 15.974 14.246 16.2246 14.48C16.4753 14.7139 16.8153 14.8453 17.1698 14.8453C17.5243 14.8453 17.8643 14.7139 18.1149 14.48C18.3656 14.246 18.5064 13.9287 18.5064 13.5979C18.5064 13.267 18.3656 12.9498 18.1149 12.7158C17.8643 12.4819 17.5243 12.3504 17.1698 12.3504ZM15.0312 15.3443C14.6767 15.3443 14.3367 15.4758 14.086 15.7097C13.8354 15.9436 13.6945 16.2609 13.6945 16.5918C13.6945 16.9226 13.8354 17.2399 14.086 17.4739C14.3367 17.7078 14.6767 17.8392 15.0312 17.8392C15.3857 17.8392 15.7256 17.7078 15.9763 17.4739C16.227 17.2399 16.3678 16.9226 16.3678 16.5918C16.3678 16.2609 16.227 15.9436 15.9763 15.7097C15.7256 15.4758 15.3857 15.3443 15.0312 15.3443ZM17.9718 16.5918C17.9718 16.2609 18.1126 15.9436 18.3632 15.7097C18.6139 15.4758 18.9539 15.3443 19.3084 15.3443C19.6629 15.3443 20.0029 15.4758 20.2535 15.7097C20.5042 15.9436 20.645 16.2609 20.645 16.5918C20.645 16.9226 20.5042 17.2399 20.2535 17.4739C20.0029 17.7078 19.6629 17.8392 19.3084 17.8392C18.9539 17.8392 18.6139 17.7078 18.3632 17.4739C18.1126 17.2399 17.9718 16.9226 17.9718 16.5918ZM17.1698 18.3382C16.8153 18.3382 16.4753 18.4696 16.2246 18.7036C15.974 18.9375 15.8331 19.2548 15.8331 19.5857C15.8331 19.9165 15.974 20.2338 16.2246 20.4678C16.4753 20.7017 16.8153 20.8331 17.1698 20.8331C17.5243 20.8331 17.8643 20.7017 18.1149 20.4678C18.3656 20.2338 18.5064 19.9165 18.5064 19.5857C18.5064 19.2548 18.3656 18.9375 18.1149 18.7036C17.8643 18.4696 17.5243 18.3382 17.1698 18.3382ZM4.22314 4.86621H4.82891C6.34732 4.86621 7.77699 5.50341 8.82063 6.34918C9.15985 6.62312 9.46736 6.92951 9.73809 7.26332V6.1461C9.73809 6.01376 9.79442 5.88684 9.89469 5.79327C9.99496 5.69969 10.1309 5.64712 10.2727 5.64712C10.4145 5.64712 10.5505 5.69969 10.6508 5.79327C10.7511 5.88684 10.8074 6.01376 10.8074 6.1461V9.43938C10.8074 9.51475 10.7892 9.58915 10.754 9.65699C10.7188 9.72483 10.6676 9.78435 10.6042 9.83108V9.85553H10.5679C10.4803 9.90998 10.3773 9.93895 10.2721 9.93877C10.1668 9.93859 10.064 9.90928 9.97655 9.85453C8.672 9.83257 7.36103 9.35904 6.32914 8.59909C5.27267 7.82068 4.47069 6.71294 4.29853 5.42657L4.22314 4.86621ZM9.43388 8.81316C9.24461 8.26877 8.79443 7.64953 8.1197 7.10265C7.39257 6.51385 6.47297 6.06526 5.50845 5.91707C5.76669 6.64658 6.296 7.30374 6.99158 7.81619C7.70427 8.34062 8.5672 8.6939 9.43388 8.81316Z" fill="black"/>
<path fill-rule="evenodd" clip-rule="evenodd" d="M20.4782 5.43652L20.5755 5.99439C20.8188 7.39303 20.3739 8.81263 19.6463 9.9094C18.9309 10.9882 17.8637 11.8654 16.7511 12.0341L16.2234 12.1139L16.1379 11.6219C15.924 10.3919 16.2138 9.0721 16.8671 7.97434C17.5205 6.87658 18.5647 5.96045 19.897 5.5957L20.4782 5.43652ZM19.5725 6.78876C18.8427 7.14404 18.2321 7.73683 17.8017 8.45935C17.3612 9.19984 17.1248 10.0511 17.1382 10.8694C17.6836 10.6075 18.2663 10.0935 18.7368 9.38397C19.2437 8.62053 19.5703 7.7009 19.573 6.78926" fill="black"/>
</svg>
