<svg width="26" height="25" viewBox="0 0 26 25" fill="none" xmlns="http://www.w3.org/2000/svg">
<g clip-path="url(#clip0_416_1701)">
<path d="M16.4852 2.27087H9.53472C7.6213 2.27351 5.78706 2.98407 4.43407 4.24679C3.08108 5.50951 2.31972 7.22137 2.31689 9.00713V15.4939C2.31689 17.2805 3.07734 18.9938 4.43095 20.2571C5.78455 21.5204 7.62043 22.2301 9.53472 22.2301H16.4852C18.3995 22.2301 20.2354 21.5204 21.589 20.2571C22.9426 18.9938 23.703 17.2805 23.703 15.4939V9.00713C23.7002 7.22137 22.9389 5.50951 21.5859 4.24679C20.2329 2.98407 18.3986 2.27351 16.4852 2.27087ZM22.0991 12.7495H18.9553L16.0682 17.2603C15.9722 17.4074 15.8371 17.5288 15.6759 17.6128C15.5148 17.6967 15.3331 17.7403 15.1486 17.7393H15.0844C14.8879 17.7296 14.6981 17.6695 14.5359 17.5656C14.3736 17.4618 14.2452 17.3181 14.1648 17.1505L10.7323 9.92525L8.59373 13.2684C8.49777 13.4155 8.36264 13.537 8.20149 13.6209C8.04035 13.7049 7.85867 13.7485 7.67412 13.7475H3.93155V11.7515H7.06462L9.96244 7.25071C10.0634 7.09447 10.2083 6.96705 10.3815 6.88231C10.5546 6.79756 10.7493 6.75874 10.9444 6.77006C11.1396 6.78138 11.3276 6.8424 11.4882 6.9465C11.6487 7.05059 11.7757 7.19378 11.8551 7.36049L15.2983 14.5857L17.4369 11.2426C17.5315 11.0936 17.6661 10.9702 17.8273 10.8844C17.9886 10.7987 18.1709 10.7536 18.3565 10.7536H22.0991V12.7495Z" fill="black"/>
</g>
<defs>
<clipPath id="clip0_416_1701">
<rect width="25.6634" height="23.9511" fill="white" transform="translate(0.178223 0.274902)"/>
</clipPath>
</defs>
</svg>
