<svg width="50" height="50" viewBox="0 0 50 50" fill="none" xmlns="http://www.w3.org/2000/svg">
<circle cx="25" cy="25" r="25" fill="#F2F2F2"/>
<g clip-path="url(#clip0_515_3609)">
<path d="M23.3633 27.8947L23.3579 27.8822C23.2501 27.8567 23.1429 27.8287 23.0365 27.7983L23.0284 27.7956C22.0099 27.5028 21.0694 26.9871 20.2749 26.2858C19.4011 25.515 18.7292 24.5421 18.3176 23.4521C17.9061 22.362 17.7675 21.1878 17.9139 20.0319C18.0602 18.876 18.4871 17.7734 19.1574 16.8204C19.8276 15.8673 20.7209 15.0926 21.7592 14.564C22.7975 14.0353 23.9493 13.7687 25.1143 13.7873C26.2793 13.8059 27.4221 14.1093 28.443 14.6709C29.4638 15.2325 30.3318 16.0353 30.9713 17.0093C31.6107 17.9833 32.0021 19.099 32.1115 20.259C32.1463 20.6277 31.8436 20.9286 31.4731 20.9286C31.1034 20.9286 30.8079 20.6277 30.765 20.2599C30.647 19.2449 30.2631 18.2792 29.6522 17.4602C29.0412 16.6412 28.2249 15.998 27.2857 15.5956C26.3465 15.1933 25.3177 15.046 24.3034 15.1687C23.289 15.2914 22.325 15.6798 21.5088 16.2945C20.6927 16.9092 20.0532 17.7284 19.6552 18.6695C19.2572 19.6105 19.1146 20.64 19.242 21.6538C19.3694 22.6676 19.7622 23.6297 20.3806 24.4431C20.9991 25.2564 21.8213 25.8921 22.7641 26.2858L22.7999 26.3009C22.9784 26.3741 23.1618 26.4387 23.3499 26.4947C23.5079 26.1128 23.7935 25.7976 24.1579 25.6027C24.5224 25.4079 24.9432 25.3455 25.3485 25.4262C25.7538 25.5069 26.1186 25.7256 26.3807 26.0452C26.6427 26.3648 26.7858 26.7653 26.7856 27.1786C26.786 27.589 26.645 27.987 26.3864 28.3057C26.1278 28.6243 25.7673 28.8441 25.3656 28.9282C24.9639 29.0122 24.5455 28.9554 24.1808 28.7671C23.8161 28.5789 23.5274 28.2708 23.3633 27.8947ZM22.4829 29.0304C20.8968 28.5371 19.4904 27.589 18.4383 26.3036C17.7862 26.38 17.1849 26.6932 16.7486 27.1837C16.3122 27.6742 16.0712 28.3078 16.0713 28.9643V29.6027C16.0713 32.9224 19.8302 35.2143 24.9999 35.2143C30.1695 35.2143 33.9284 32.7965 33.9284 29.6027V28.9643C33.9284 28.2539 33.6462 27.5726 33.1439 27.0703C32.6416 26.568 31.9603 26.2858 31.2499 26.2858H27.9954C28.206 26.9911 28.1608 27.7482 27.8678 28.4236C27.5748 29.0989 27.0528 29.6491 26.3938 29.9772C25.7349 30.3053 24.9812 30.3903 24.2657 30.2171C23.5502 30.0438 22.9188 29.6236 22.4829 29.0304ZM29.4641 20.9286C29.4641 19.5786 28.8659 18.3688 27.9186 17.55C27.4433 17.14 26.8869 16.8348 26.2856 16.6544C25.6843 16.474 25.0518 16.4224 24.4293 16.503C23.8067 16.5836 23.2082 16.7946 22.6727 17.1222C22.1373 17.4498 21.6769 17.8867 21.3217 18.4043C20.9665 18.9219 20.7244 19.5085 20.6113 20.126C20.4982 20.7434 20.5166 21.3778 20.6653 21.9877C20.814 22.5976 21.0896 23.1692 21.4742 23.6654C21.8588 24.1615 22.3436 24.571 22.8972 24.867C23.4724 24.3437 24.2222 24.0537 24.9999 24.0536C25.7779 24.0534 26.5279 24.3435 27.1034 24.867C27.8168 24.4859 28.4132 23.9182 28.829 23.2246C29.2447 22.5309 29.4643 21.7373 29.4641 20.9286Z" fill="#6D31ED"/>
</g>
<defs>
<clipPath id="clip0_515_3609">
<rect width="18" height="23" fill="white" transform="translate(16 13)"/>
</clipPath>
</defs>
</svg>
