<svg width="50" height="50" viewBox="0 0 50 50" fill="none" xmlns="http://www.w3.org/2000/svg">
<circle cx="25" cy="25" r="25" fill="#F2F2F2"/>
<g clip-path="url(#clip0_515_3619)">
<path d="M37 33.875L32.3125 37V35.4375H24.8906L28.0156 32.3125H32.3125V30.75L37 33.875ZM12 15.125L16.6875 12V13.5625H24.1094L20.9844 16.6875H16.6875V18.25L12 15.125ZM27.2188 12L12 27.2188L21.7812 37L37 21.7812L27.2188 12ZM14.1719 27.2188L27.2188 14.1719L34.8281 21.7812L21.7812 34.8281L14.1719 27.2188Z" fill="#6D31ED"/>
<path d="M18.5156 27.2187L17.4219 28.3125L20.6875 31.5781L21.7813 30.4844L22.9375 31.5625L27.2188 27.2187C26.4941 27.9223 25.5217 28.3125 24.5118 28.3051C23.5018 28.2976 22.5353 27.8931 21.8211 27.1789C21.1069 26.4647 20.7024 25.4982 20.6949 24.4882C20.6875 23.4783 21.0777 22.5059 21.7813 21.7812L17.4375 26.0625L18.5156 27.2187Z" fill="#6D31ED"/>
<path d="M31.5625 20.7031L28.2969 17.4375L27.2031 18.5312L26.0625 17.4375L21.7812 21.7812C22.5059 21.0777 23.4783 20.6875 24.4882 20.6949C25.4982 20.7024 26.4647 21.1069 27.1789 21.8211C27.8931 22.5353 28.2976 23.5018 28.3051 24.5118C28.3125 25.5217 27.9223 26.4941 27.2187 27.2187L31.5625 22.9375L30.4687 21.8438L31.5625 20.7031Z" fill="#6D31ED"/>
</g>
<defs>
<clipPath id="clip0_515_3619">
<rect width="25" height="25" fill="white" transform="translate(12 12)"/>
</clipPath>
</defs>
</svg>
