<svg width="22" height="21" viewBox="0 0 22 21" fill="none" xmlns="http://www.w3.org/2000/svg">
<path d="M15.055 2.73547H12.0819C11.5447 2.73707 11.5648 3.48434 12.0819 3.47995H15.055V3.86197H12.0819C11.5476 3.85758 11.5673 4.60446 12.0819 4.60645H15.055V4.99686H12.0819C11.5476 4.99686 11.5673 5.74333 12.0819 5.74134H15.055V6.11338H12.0819C11.5588 6.11697 11.5673 6.86425 12.0819 6.86664H15.055V7.23948H12.0819C11.5588 7.23788 11.5566 7.98396 12.0819 7.98396H15.055V8.356H12.0819C11.5588 8.3576 11.5566 9.10448 12.0819 9.10088H15.055V9.4821H12.0819C11.5588 9.47771 11.5566 10.2238 12.0819 10.2266H15.055V10.5978H12.0819C11.5588 10.5974 11.5673 11.3451 12.0819 11.3427H15.055V18.5915C15.0567 19.6961 16.8544 19.6761 16.8595 18.5915V1.62813C16.8544 1.12356 16.4104 0.485664 15.6799 0.483669H12.0819C11.5447 0.484068 11.5648 1.23134 12.0819 1.22815L15.055 1.23733V1.60857H12.0819C11.5455 1.60618 11.5656 2.35305 12.0819 2.35345H15.055V2.73547ZM11.8774 15.5868C11.8757 14.2975 10.4437 12.9107 8.7328 13.8089V8.87734L7.62628 0.743937C7.60319 0.528777 7.40772 0.47808 7.27641 0.474487C7.14082 0.47808 6.86921 0.528777 6.8397 0.743937L5.73874 8.87734V13.8089C4.02785 12.9107 2.64203 14.3063 2.6416 15.5769C2.64203 16.7074 3.57447 17.6359 4.83625 17.6331C6.10744 17.6359 7.02191 16.5952 7.02191 15.5769V10.4541H7.44963V15.5769C7.44963 16.7169 8.39576 17.5608 9.4471 17.6143C9.42956 18.2394 9.64813 19.1312 10.0596 19.4849C10.5421 19.9 11.1165 19.3691 10.8808 18.9368C10.6533 18.5344 10.43 18.2961 10.6114 17.4175C11.3693 17.0902 11.8757 16.4012 11.8774 15.5868ZM4.88501 16.6012C4.59659 16.6012 4.31998 16.4942 4.11604 16.3039C3.9121 16.1136 3.79752 15.8554 3.79752 15.5862C3.79752 15.3171 3.9121 15.0589 4.11604 14.8686C4.31998 14.6782 4.59659 14.5713 4.88501 14.5713C5.47783 14.5745 5.96073 15.0284 5.96501 15.5868C5.96379 15.8544 5.84983 16.1108 5.64774 16.3006C5.44566 16.4904 5.17169 16.5983 4.88501 16.6012ZM8.55102 15.5868C8.55202 15.319 8.66592 15.0624 8.86811 14.8723C9.07029 14.6823 9.34451 14.5741 9.63145 14.5713C9.91849 14.5737 10.1929 14.6817 10.3951 14.8719C10.5973 15.062 10.711 15.3189 10.7114 15.5868C10.711 15.8546 10.5973 16.1114 10.395 16.3014C10.1928 16.4913 9.91837 16.5991 9.63145 16.6012C9.34459 16.5988 9.07031 16.4909 8.86807 16.3011C8.66582 16.1112 8.55191 15.8546 8.55102 15.5868Z" fill="black"/>
</svg>
