<svg width="26" height="25" viewBox="0 0 26 25" fill="none" xmlns="http://www.w3.org/2000/svg">
<path d="M23.4902 6.58662C23.1579 5.88316 22.7217 5.22661 22.1942 4.6361L19.3985 7.24528C20.053 7.60676 20.824 7.739 21.5734 7.61832C22.3229 7.49763 23.0018 7.1319 23.4886 6.58662M18.2629 6.18693L21.0586 3.57776C20.4264 3.08561 19.7234 2.67849 18.9703 2.36823C18.3856 2.82266 17.9935 3.45656 17.8641 4.15633C17.7348 4.8561 17.8768 5.57597 18.2645 6.18693M16.2179 4.66604C16.2179 5.63606 16.5483 6.53423 17.1081 7.26773L15.8169 8.47277L10.2223 3.24993C11.2276 2.5683 12.3754 2.0918 13.5911 1.85143C14.8067 1.61106 16.0629 1.6122 17.2781 1.85478C16.5921 2.65191 16.2181 3.64364 16.2179 4.66604ZM16.9509 9.53111L18.2421 8.32607C19.028 8.85 19.9904 9.15687 21.0298 9.15687C22.125 9.1571 23.1877 8.80858 24.042 8.16889C24.1714 8.72975 24.2366 9.30856 24.2377 9.90535C24.2377 11.7166 23.6105 13.3932 22.5471 14.754L16.9509 9.53111ZM21.4853 15.8797L15.8169 10.5894L14.8465 11.4951C16.5146 13.2697 17.5381 15.4915 17.7705 17.8421C19.182 17.4784 20.4523 16.7928 21.4853 15.8797ZM6.91009 7.70783C7.29985 6.39052 8.03286 5.20494 9.01128 4.24091L14.6829 9.53111L13.7125 10.4368C11.811 8.87996 9.42883 7.92471 6.91009 7.70783ZM4.18817 9.15687C3.55007 9.15687 2.93811 9.39344 2.48691 9.81454C2.03571 10.2356 1.78223 10.8068 1.78223 11.4023V12.8992C1.78223 15.4798 2.88065 17.9547 4.83586 19.7795C6.79106 21.6042 9.44289 22.6294 12.208 22.6294H13.8119C14.45 22.6294 15.062 22.3928 15.5132 21.9717C15.9644 21.5506 16.2179 20.9795 16.2179 20.384V18.887C16.2179 16.3064 15.1194 13.8315 13.1642 12.0068C11.209 10.182 8.55721 9.15687 5.79213 9.15687H4.18817ZM7.22928 14.2405C7.30377 14.1708 7.39227 14.1155 7.48971 14.0778C7.58714 14.04 7.69159 14.0206 7.79708 14.0206C7.90257 14.0206 8.00702 14.04 8.10445 14.0778C8.20188 14.1155 8.29038 14.1708 8.36488 14.2405L10.7708 16.4859C10.8454 16.5555 10.9045 16.6381 10.9449 16.729C10.9852 16.82 11.006 16.9174 11.006 17.0158C11.006 17.1143 10.9852 17.2117 10.9449 17.3026C10.9045 17.3935 10.8454 17.4762 10.7708 17.5458C10.6963 17.6153 10.6077 17.6705 10.5103 17.7082C10.4129 17.7459 10.3085 17.7653 10.203 17.7653C10.0976 17.7653 9.99315 17.7459 9.89573 17.7082C9.7983 17.6705 9.70978 17.6153 9.63522 17.5458L7.22928 15.3003C7.15459 15.2308 7.09534 15.1482 7.0549 15.0573C7.01447 14.9663 6.99366 14.8689 6.99366 14.7704C6.99366 14.672 7.01447 14.5745 7.0549 14.4836C7.09534 14.3926 7.15459 14.31 7.22928 14.2405Z" fill="black"/>
</svg>
