<svg width="68" height="46" viewBox="0 0 68 46" fill="none" xmlns="http://www.w3.org/2000/svg">
<path d="M30.0845 9.32666H44.323V34.911H30.0845V9.32666Z" fill="#FF5F00"/>
<path d="M30.9885 21.7698C30.9885 16.5716 33.4294 11.9609 37.181 8.97754C34.4239 6.80788 30.9434 5.49707 27.1465 5.49707C18.151 5.49707 10.8735 12.7745 10.8735 21.7698C10.8735 30.7651 18.151 38.0425 27.1463 38.0425C30.9432 38.0425 34.4237 36.7317 37.181 34.5619C33.4294 31.6238 30.9885 26.968 30.9885 21.7698Z" fill="#EB001B"/>
<path d="M63.5338 21.7698C63.5338 30.7649 56.2563 38.0425 47.2609 38.0425C43.4639 38.0425 39.9834 36.7317 37.2261 34.5619C41.0231 31.5787 43.4188 26.968 43.4188 21.7698C43.4188 16.5716 40.9778 11.9609 37.2261 8.97754C39.9832 6.80788 43.4639 5.49707 47.2609 5.49707C56.2563 5.49707 63.5338 12.8198 63.5338 21.7698Z" fill="#F79E1B"/>
</svg>
